<svg width="32" height="32" viewBox="0 0 32 32" fill="none" xmlns="http://www.w3.org/2000/svg">
<path fill="#0069B4" stroke-width="0.2" d="m26.6904,19.9031l0.0002,0l-6.62695,0.10403l6.62675,-0.10403zm-15.75014,0.0718l-0.66007,2.17965l18.56031,-0.12015c0.2659,0.0001 0.5209,0.1054 0.7094,0.2929c0.1885,0.1874 0.2952,0.4416 0.2969,0.7074c-0.0001,0.5538 -0.452,1.0028 -1.0031,1.0028l-3.5406,0l-0.1993,0l0.1191,0.1598c0.4,0.5362 0.6239,1.1935 0.6239,1.8683c0,1.7135 -1.3927,3.1063 -3.1062,3.1063c-1.7135,0 -3.1063,-1.3928 -3.1063,-3.1063l0,-0.0001c-0.0005,-0.6738 0.2184,-1.3295 0.6237,-1.8679l0.1206,-0.1601l-0.2005,0l-5.0344,0l-0.1993,0l0.1192,0.1598c0.3999,0.5362 0.6239,1.1935 0.6239,1.8683c0,1.7135 -1.3928,3.1063 -3.1063,3.1063c-1.7135,0 -3.10622,-1.3928 -3.10622,-3.1063l0,-0.0001c-0.0006,-0.6738 0.21833,-1.3295 0.62362,-1.8679l0.1206,-0.1601l-0.2005,0l-1.96247,0c-0.38086,0 -0.72452,-0.213 -0.89508,-0.5513l-0.00037,-0.0007c-0.08471,-0.1647 -0.12163,-0.3499 -0.10658,-0.5345c0.01505,-0.1846 0.08147,-0.3614 0.19175,-0.5102l0.00031,0.0002l0.00461,-0.0075l2.3375,-3.8156l0.02066,-0.0338l-0.008,-0.0387l-1.81562,-8.79063l-0.00008,-0.00035l-0.7375,-3.50625l-0.0167,-0.07942l-0.08115,0l-3.93438,0c-0.26604,0 -0.52119,-0.10569 -0.70932,-0.29381c-0.18812,-0.18812 -0.2938,-0.44327 -0.2938,-0.70931c0,-0.26605 0.10568,-0.5212 0.2938,-0.70932c0.18813,-0.18812 0.44328,-0.29381 0.70932,-0.29381l4.82813,0c0.47174,0 0.88691,0.33589 0.98338,0.79554l0.00005,0.00026l0.16875,0.79374l0.01678,0.07894l0.0807,0.00027l19.74971,0.06562c0.0001,0 0.0001,0 0.0002,0c0.144,0.00087 0.2861,0.03305 0.4165,0.09431c0.1304,0.06129 0.246,0.15021 0.3386,0.26059c0.1869,0.22388 0.2636,0.51882 0.2125,0.80568l-2.37883,12.67489l-16.49181,0.24256zm-1.38683,-12.16865l-0.12368,-0.00041l0.0255,0.12102l2.09685,9.95314l0.0168,0.0795l0.0813,-0.0001l14.1343,-0.025l0.0836,-0.0002l0.0147,-0.0822l1.7625,-9.86879l0.0209,-0.11719l-0.119,-0.00039l-17.99377,-0.05938zm1.94027,18.25935c0,0.599 0.4885,1.0875 1.0875,1.0875c0.2884,0 0.5651,-0.1146 0.769,-0.3185c0.2039,-0.2039 0.3185,-0.4806 0.3185,-0.769c0,-0.599 -0.4885,-1.0875 -1.0875,-1.0875c-0.599,0 -1.0875,0.4885 -1.0875,1.0875zm10.1594,0c0,0.599 0.4885,1.0875 1.0875,1.0875c0.2884,0 0.565,-0.1146 0.769,-0.3185c0.2039,-0.2039 0.3185,-0.4806 0.3185,-0.769c0,-0.599 -0.4885,-1.0875 -1.0875,-1.0875c-0.599,0 -1.0875,0.4885 -1.0875,1.0875z"/>
</svg>
